<svg xmlns="http://www.w3.org/2000/svg" viewBox="0 0 48 48" width="48" height="48">
  <path d="M12.5 9C6.7184991 9 2 13.718499 2 19.5C2 25.281501 6.7184991 30 12.5 30L16.5 30 A 1.50015 1.50015 0 1 0 16.5 27L12.5 27C8.3395009 27 5 23.660499 5 19.5C5 15.339501 8.3395009 12 12.5 12L17.5 12 A 1.50015 1.50015 0 1 0 17.5 9L12.5 9 z M 27.5 9C26.67 9 26 9.67 26 10.5C26 11.33 26.67 12 27.5 12L31.5 12C35.64 12 39 15.36 39 19.5C39 20.55 38.790625 21.539219 38.390625 22.449219C39.370625 22.709219 40.299687 23.090547 41.179688 23.560547C41.709688 22.320547 42 20.94 42 19.5C42 13.71 37.29 9 31.5 9L27.5 9 z M 11.5 18 A 1.50015 1.50015 0 1 0 11.5 21L32.5 21 A 1.50015 1.50015 0 1 0 32.5 18L11.5 18 z M 35 24C28.925 24 24 28.925 24 35C24 41.075 28.925 46 35 46C41.075 46 46 41.075 46 35C46 28.925 41.075 24 35 24 z M 35 27C35.552 27 36 27.448 36 28L36 34L42 34C42.552 34 43 34.448 43 35C43 35.552 42.552 36 42 36L36 36L36 42C36 42.552 35.552 43 35 43C34.448 43 34 42.552 34 42L34 36L28 36C27.448 36 27 35.552 27 35C27 34.448 27.448 34 28 34L34 34L34 28C34 27.448 34.448 27 35 27 z" fill="currentColor" />
</svg>