<svg xmlns="http://www.w3.org/2000/svg" viewBox="0 0 48 48" width="48" height="48">
  <path d="M11.5 6C8.4802259 6 6 8.4802259 6 11.5L6 36.5C6 39.519774 8.4802259 42 11.5 42L36.5 42C39.519774 42 42 39.519774 42 36.5L42 11.5C42 8.4802259 39.519774 6 36.5 6L11.5 6 z M 11.5 9L36.5 9C37.898226 9 39 10.101774 39 11.5L39 36.5C39 37.898226 37.898226 39 36.5 39L30 39L30 29L33.625 29C34.129 29 34.555187 28.623047 34.617188 28.123047L34.992188 25.123047C35.028188 24.839047 34.938047 24.553891 34.748047 24.337891C34.559047 24.122891 34.287 24 34 24L30 24L30 20.5C30 19.397 30.897 18.5 32 18.5L34 18.5C34.552 18.5 35 18.053 35 17.5L35 14.125C35 13.607 34.604844 13.174906 34.089844 13.128906C34.030844 13.123906 32.619984 13 30.833984 13C26.426984 13 24 15.616187 24 20.367188L24 24L20 24C19.448 24 19 24.447 19 25L19 28C19 28.553 19.448 29 20 29L24 29L24 39L11.5 39C10.101774 39 9 37.898226 9 36.5L9 11.5C9 10.101774 10.101774 9 11.5 9 z" fill="currentColor" />
</svg>