<svg xmlns="http://www.w3.org/2000/svg" viewBox="0 0 48 48" width="48" height="48">
  <path d="M35.5 3C32.316385 3 29.491595 4.5852966 27.765625 7L11.5 7C8.4802259 7 6 9.4802259 6 12.5L6 37.5C6 40.519774 8.4802259 43 11.5 43L36.5 43C39.519774 43 42 40.519774 42 37.5L42 19.693359C43.52453 17.664135 45 15.506079 45 12.476562C45 7.2583961 40.726284 3 35.5 3 z M 35.5 6C39.109716 6 42 8.8847299 42 12.476562C42 14.69209 40.93429 16.141555 39.326172 18.265625C38.057178 19.941766 36.628032 22.186244 35.5 25C34.371968 22.186244 32.942822 19.941766 31.673828 18.265625C30.06571 16.141555 29 14.69209 29 12.476562C29 8.8847299 31.890284 6 35.5 6 z M 11.5 10L26.341797 10C26.125724 10.791015 26 11.619076 26 12.476562C26 14.991244 27.017951 16.904478 28.234375 18.644531L9.0351562 37.84375C9.0199745 37.730558 9 37.617889 9 37.5L9 12.5C9 11.101774 10.101774 10 11.5 10 z M 35.5 10C34.119 10 33 11.119 33 12.5C33 13.881 34.119 15 35.5 15C36.881 15 38 13.881 38 12.5C38 11.119 36.881 10 35.5 10 z M 16.515625 12C13.490048 12 11.015625 14.474423 11.015625 17.5C11.015625 20.525577 13.490048 23 16.515625 23C19.333765 23 21.667751 20.852007 21.980469 18.113281 A 1.0001 1.0001 0 0 0 20.986328 17L17.015625 17 A 1.0001 1.0001 0 1 0 17.015625 19L19.419922 19C18.835281 20.116815 17.865351 21 16.515625 21C14.571202 21 13.015625 19.444423 13.015625 17.5C13.015625 15.555577 14.571202 14 16.515625 14C17.355012 14 18.115 14.291164 18.716797 14.779297 A 1.0001 1.0001 0 1 0 19.976562 13.226562C19.032359 12.460695 17.822238 12 16.515625 12 z M 30.033203 21.087891C31.402376 22.933637 32.725514 24.943963 33.513672 27.962891L33.515625 27.962891C33.552145 28.4805 33.535375 28.288143 33.714844 28.767578C33.804574 29.007296 33.993117 29.366839 34.357422 29.636719C34.72168 29.906599 35.17174 30 35.5 30C35.828826 30 36.280435 29.90692 36.644531 29.636719C37.008628 29.366518 37.19556 29.005162 37.285156 28.765625C37.464349 28.286551 37.448068 28.10328 37.484375 27.964844L37.484375 27.962891L37.486328 27.962891C37.877609 26.464145 38.405158 25.220399 39 24.113281L39 37.5C39 37.617889 38.980025 37.730558 38.964844 37.84375L26.121094 25L30.033203 21.087891 z M 24 27.121094L36.84375 39.964844C36.730558 39.980025 36.617889 40 36.5 40L11.5 40C11.382111 40 11.269442 39.980025 11.15625 39.964844L24 27.121094 z" fill="currentColor" />
</svg>