<svg xmlns="http://www.w3.org/2000/svg" viewBox="0 0 48 48" width="48" height="48">
  <path d="M11.5 6C8.4802259 6 6 8.4802259 6 11.5L6 36.5C6 39.519774 8.4802259 42 11.5 42L36.5 42C39.519774 42 42 39.519774 42 36.5L42 11.5C42 8.4802259 39.519774 6 36.5 6L11.5 6 z M 11.5 9L36.5 9C37.898226 9 39 10.101774 39 11.5L39 36.5C39 37.898226 37.898226 39 36.5 39L11.5 39C10.101774 39 9 37.898226 9 36.5L9 11.5C9 10.101774 10.101774 9 11.5 9 z M 15.5 13 A 2.5 2.5 0 0 0 15.5 18 A 2.5 2.5 0 0 0 15.5 13 z M 14 20C13.447 20 13 20.447 13 21L13 34C13 34.553 13.447 35 14 35L17 35C17.553 35 18 34.553 18 34L18 21C18 20.447 17.553 20 17 20L14 20 z M 21 20C20.447 20 20 20.447 20 21L20 34C20 34.553 20.447 35 21 35L24 35C24.553 35 25 34.553 25 34L25 26.5C25 25.121 26.121 24 27.5 24C28.879 24 30 25.121 30 26.5L30 34C30 34.553 30.447 35 31 35L34 35C34.553 35 35 34.553 35 34L35 26C35 22.691 32.309 20 29 20C27.462 20 26.063 20.586016 25 21.541016L25 21C25 20.447 24.553 20 24 20L21 20 z" fill="currentColor" />
</svg>