<svg xmlns="http://www.w3.org/2000/svg" viewBox="0 0 48 48" width="48" height="48">
  <path d="M32 6C26.568583 6 22.160643 10.388731 22.042969 15.792969C17.240727 15.216998 14.113589 13.421507 12.195312 11.652344C10.067982 9.6903754 9.3945312 7.9472656 9.3945312 7.9472656 A 1.50015 1.50015 0 0 0 6.8007812 7.5996094C6.8007812 7.5996094 5 10 5 13.5C5 15.500985 5.6317952 16.981554 6.3847656 18.236328C6.3570276 18.223338 6.1699219 18.158203 6.1699219 18.158203 A 1.50015 1.50015 0 0 0 4.0058594 19.636719C4.0058594 19.636719 4.5832039 23.856843 8.5507812 26.941406L8.1367188 27.044922 A 1.50015 1.50015 0 0 0 7.1972656 29.244141C7.1972656 29.244141 7.8700527 30.382221 9.2792969 31.580078C10.11485 32.290298 11.34227 33.023169 12.789062 33.701172C11.012271 34.35044 8.362818 35 4.5 35 A 1.50015 1.50015 0 0 0 3.3710938 37.488281C3.3710938 37.488281 4.5173251 38.751002 6.7832031 39.849609C9.0490812 40.948217 12.539474 42 17.5 42C26.219697 42 32.484656 37.817151 36.394531 32.515625C40.304407 27.214099 42 20.861111 42 16C42 15.691547 41.980739 15.387437 41.953125 15.085938C44.064371 13.051602 44.856626 11.522235 44.894531 11.447266C45.084531 11.066266 45.01375 10.608688 44.71875 10.304688C44.42475 9.9996875 43.969031 9.9137969 43.582031 10.091797L43.419922 10.166016C43.280922 10.230016 43.141953 10.294422 43.001953 10.357422C43.408953 9.7084219 43.730125 9.014875 43.953125 8.296875C44.077125 7.900875 43.943234 7.4669375 43.615234 7.2109375C43.287234 6.9549375 42.835469 6.9275312 42.480469 7.1445312C41.258221 7.8873594 40.086652 8.40739 38.867188 8.7558594C37.072578 7.0534724 34.656873 6 32 6 z M 32 9C35.883178 9 39 12.116822 39 16C39 20.138889 37.445593 26.035901 33.980469 30.734375C30.515344 35.432849 25.280303 39 17.5 39C13.7348 39 11.230189 38.318942 9.3535156 37.582031C11.319341 37.276755 13.011947 36.869367 14.228516 36.398438C16.338182 35.581792 17.476563 34.638672 17.476562 34.638672 A 1.50015 1.50015 0 0 0 16.863281 32.044922C14.140556 31.364241 12.394328 30.263307 11.298828 29.345703L12.863281 28.955078 A 1.50015 1.50015 0 0 0 13.039062 26.099609C9.7939415 24.851486 8.4312292 23.086373 7.734375 21.607422C8.5823538 21.782967 9.3718961 22 10.5 22 A 1.50015 1.50015 0 0 0 11.169922 19.158203C11.169922 19.158203 8 17.7 8 13.5C8 12.745947 8.2088435 12.268355 8.3613281 11.697266C8.884507 12.400354 9.3156815 13.07859 10.160156 13.857422C12.734824 16.231954 16.990366 18.653154 23.419922 18.998047 A 1.50015 1.50015 0 0 0 25 17.5L25 16C25 12.116822 28.116822 9 32 9 z" fill="currentColor" />
</svg>