<svg xmlns="http://www.w3.org/2000/svg" viewBox="0 0 48 48" width="48" height="48">
  <path d="M23.857422 8.5C17.504717 8.5 11.602344 8.9526234 8.234375 9.65625 A 1.50015 1.50015 0 0 0 8.2128906 9.6621094C5.6754768 10.230693 3.2861897 12.048234 2.7832031 14.894531 A 1.50015 1.50015 0 0 0 2.78125 14.90625C2.394836 17.200265 2 20.190694 2 24.5C2 28.801151 2.3961903 31.712324 2.8847656 34.126953C3.4000756 36.889296 5.7342165 38.761817 8.3105469 39.337891 A 1.50015 1.50015 0 0 0 8.3476562 39.347656C11.86271 40.040284 17.598467 40.5 23.951172 40.5C30.303877 40.5 36.042686 40.04028 39.558594 39.347656 A 1.50015 1.50015 0 0 0 39.595703 39.337891C42.133117 38.769306 44.522404 36.951766 45.025391 34.105469 A 1.50015 1.50015 0 0 0 45.029297 34.083984C45.409789 31.743169 45.902812 28.755621 46 24.439453 A 1.50015 1.50015 0 0 0 46 24.40625C46 20.087697 45.50571 17.078675 45.023438 14.695312C44.512192 11.927074 42.175378 10.049478 39.595703 9.4726562 A 1.50015 1.50015 0 0 0 39.476562 9.4511719C36.0464 8.9689502 30.211115 8.5 23.857422 8.5 z M 23.857422 11.5C30.017774 11.5 35.726167 11.961361 38.966797 12.412109C40.559483 12.778239 41.824973 13.890643 42.074219 15.240234 A 1.50015 1.50015 0 0 0 42.078125 15.265625C42.543492 17.56209 42.996187 20.292628 42.998047 24.384766C42.904597 28.49001 42.450899 31.244675 42.070312 33.585938C41.810413 35.044446 40.592 36.034419 38.953125 36.40625C35.805209 37.023818 30.142051 37.5 23.951172 37.5C17.759247 37.5 12.097629 37.021978 8.9511719 36.404297C7.3525116 36.041193 6.081938 34.925434 5.8320312 33.572266 A 1.50015 1.50015 0 0 0 5.8261719 33.546875C5.3660305 31.276194 5 28.628694 5 24.5C5 20.378688 5.3654221 17.62199 5.7363281 15.417969C5.9947549 13.955585 7.2164425 12.963194 8.859375 12.591797C11.774266 11.984227 17.659955 11.5 23.857422 11.5 z M 20.460938 16.023438C18.668395 16.081606 17 17.525347 17 19.486328L17 28.515625C17 31.130266 19.966455 32.825862 22.238281 31.542969 A 1.50015 1.50015 0 0 0 22.238281 31.541016L30.228516 27.027344C32.516764 25.734577 32.516764 22.265423 30.228516 20.972656L22.238281 16.458984C21.670325 16.138261 21.058451 16.004047 20.460938 16.023438 z M 20.472656 18.980469C20.562791 18.985356 20.661175 19.013538 20.761719 19.070312L28.751953 23.585938C29.157705 23.815171 29.157705 24.186783 28.751953 24.416016L20.761719 28.929688C20.359545 29.156793 20 28.944984 20 28.515625L20 19.486328C20 19.271649 20.09013 19.111638 20.230469 19.033203C20.300636 18.993988 20.382521 18.975581 20.472656 18.980469 z" fill="currentColor" />
</svg>